<?xml version="1.0" encoding="UTF-8" standalone="no"?>
<!DOCTYPE svg PUBLIC "-//W3C//DTD SVG 20010904//EN"
              "http://www.w3.org/TR/2001/REC-SVG-20010904/DTD/svg10.dtd">

<svg xmlns="http://www.w3.org/2000/svg"
     width="70px" height="50px"
     viewBox="0 0 112 80">
  <path id="Selection"
        fill="black" stroke="black" stroke-width="1"
        d="M 16.00,0.00
           C 16.00,0.00 32.00,0.00 32.00,0.00
             32.00,0.00 32.00,16.00 32.00,16.00
             32.00,16.00 48.00,16.00 48.00,16.00
             48.00,16.00 48.00,0.00 48.00,0.00
             48.00,0.00 64.00,0.00 64.00,0.00
             64.00,0.00 64.00,16.00 64.00,16.00
             64.00,16.00 80.00,16.00 80.00,16.00
             80.00,16.00 80.00,32.00 80.00,32.00
             80.00,32.00 64.00,32.00 64.00,32.00
             64.00,32.00 64.00,48.00 64.00,48.00
             64.00,48.00 80.00,48.00 80.00,48.00
             80.00,48.00 80.00,64.00 80.00,64.00
             80.00,64.00 64.00,64.00 64.00,64.00
             64.00,64.00 64.00,80.00 64.00,80.00
             64.00,80.00 48.00,80.00 48.00,80.00
             48.00,80.00 48.00,64.00 48.00,64.00
             48.00,64.00 32.00,64.00 32.00,64.00
             32.00,64.00 32.00,80.00 32.00,80.00
             32.00,80.00 16.00,80.00 16.00,80.00
             16.00,80.00 16.00,64.00 16.00,64.00
             16.00,64.00 0.00,64.00 0.00,64.00
             0.00,64.00 0.00,48.00 0.00,48.00
             0.00,48.00 16.00,48.00 16.00,48.00
             16.00,48.00 16.00,32.00 16.00,32.00
             16.00,32.00 0.00,32.00 0.00,32.00
             0.00,32.00 0.00,16.00 0.00,16.00
             0.00,16.00 16.00,16.00 16.00,16.00
             16.00,16.00 16.00,0.00 16.00,0.00 Z
           M 96.00,0.00
           C 96.00,0.00 112.00,0.00 112.00,0.00
             112.00,0.00 112.00,48.00 112.00,48.00
             112.00,48.00 96.00,48.00 96.00,48.00
             96.00,48.00 96.00,0.00 96.00,0.00 Z
           M 48.00,32.00
           C 48.00,32.00 32.00,32.00 32.00,32.00
             32.00,32.00 32.00,48.00 32.00,48.00
             32.00,48.00 48.00,48.00 48.00,48.00
             48.00,48.00 48.00,32.00 48.00,32.00 Z
           M 96.00,64.00
           C 96.00,64.00 112.00,64.00 112.00,64.00
             112.00,64.00 112.00,80.00 112.00,80.00
             112.00,80.00 96.00,80.00 96.00,80.00
             96.00,80.00 96.00,64.00 96.00,64.00 Z" />
</svg>
